<svg width="22" height="25" viewBox="0 0 22 25" fill="none" xmlns="http://www.w3.org/2000/svg">
<path d="M10.9485 6.88452C7.84237 6.88452 5.33691 9.3894 5.33691 12.4949C5.33691 15.6003 7.84237 18.1052 10.9485 18.1052C14.0547 18.1052 16.5602 15.6003 16.5602 12.4949C16.5602 9.3894 14.0547 6.88452 10.9485 6.88452ZM10.9485 16.1423C8.94125 16.1423 7.30025 14.5066 7.30025 12.4949C7.30025 10.4832 8.93637 8.84741 10.9485 8.84741C12.9607 8.84741 14.5968 10.4832 14.5968 12.4949C14.5968 14.5066 12.9558 16.1423 10.9485 16.1423ZM18.0986 6.65503C18.0986 7.38257 17.5125 7.96362 16.7897 7.96362C16.062 7.96362 15.4808 7.37769 15.4808 6.65503C15.4808 5.93237 16.0669 5.34644 16.7897 5.34644C17.5125 5.34644 18.0986 5.93237 18.0986 6.65503ZM21.8153 7.98315C21.7323 6.23022 21.3318 4.67749 20.0473 3.39819C18.7677 2.1189 17.2146 1.71851 15.4613 1.63062C13.6542 1.52808 8.23797 1.52808 6.43091 1.63062C4.68247 1.71362 3.12938 2.11401 1.8449 3.39331C0.560431 4.67261 0.164833 6.22534 0.0769219 7.97827C-0.0256406 9.78491 -0.0256406 15.2 0.0769219 17.0066C0.159949 18.7595 0.560431 20.3123 1.8449 21.5916C3.12938 22.8708 4.67758 23.2712 6.43091 23.3591C8.23797 23.4617 13.6542 23.4617 15.4613 23.3591C17.2146 23.2761 18.7677 22.8757 20.0473 21.5916C21.3269 20.3123 21.7274 18.7595 21.8153 17.0066C21.9179 15.2 21.9179 9.78979 21.8153 7.98315ZM19.4808 18.9451C19.0998 19.9021 18.3624 20.6394 17.4002 21.0251C15.9595 21.5964 12.5407 21.4646 10.9485 21.4646C9.35639 21.4646 5.93275 21.5916 4.49688 21.0251C3.53963 20.6443 2.80215 19.907 2.41632 18.9451C1.8449 17.5046 1.97677 14.0867 1.97677 12.4949C1.97677 10.9031 1.84979 7.48022 2.41632 6.04468C2.79727 5.08765 3.53474 4.35034 4.49688 3.9646C5.93764 3.39331 9.35639 3.52515 10.9485 3.52515C12.5407 3.52515 15.9643 3.39819 17.4002 3.9646C18.3575 4.34546 19.0949 5.08276 19.4808 6.04468C20.0522 7.48511 19.9203 10.9031 19.9203 12.4949C19.9203 14.0867 20.0522 17.5095 19.4808 18.9451Z" fill="white"/>
</svg>
