<svg width="22" height="25" viewBox="0 0 22 25" fill="none" xmlns="http://www.w3.org/2000/svg">
<path d="M4.8976 21.875H0.361411V7.27051H4.8976V21.875ZM2.62706 5.27832C1.17654 5.27832 0 4.07715 0 2.62695C1.03822e-08 1.93037 0.276779 1.26232 0.76945 0.769762C1.26212 0.277204 1.93032 0.000488281 2.62706 0.000488281C3.32381 0.000488281 3.99201 0.277204 4.48468 0.769762C4.97735 1.26232 5.25413 1.93037 5.25413 2.62695C5.25413 4.07715 4.0771 5.27832 2.62706 5.27832ZM21.8751 21.875H17.3487V14.7656C17.3487 13.0713 17.3145 10.8984 14.9902 10.8984C12.6318 10.8984 12.2704 12.7393 12.2704 14.6436V21.875H7.73907V7.27051H12.0897V9.2627H12.1532C12.7588 8.11523 14.2381 6.9043 16.4452 6.9043C21.0361 6.9043 21.88 9.92676 21.88 13.8525V21.875H21.8751Z" fill="white"/>
</svg>
