<svg width="29" height="25" viewBox="0 0 29 25" fill="none" xmlns="http://www.w3.org/2000/svg">
<path d="M26.8436 6.05874C26.5369 4.90396 25.6331 3.99448 24.4856 3.68584C22.4056 3.125 14.0652 3.125 14.0652 3.125C14.0652 3.125 5.72486 3.125 3.64485 3.68584C2.49734 3.99453 1.59356 4.90396 1.28682 6.05874C0.729492 8.15186 0.729492 12.5189 0.729492 12.5189C0.729492 12.5189 0.729492 16.886 1.28682 18.9791C1.59356 20.1339 2.49734 21.0055 3.64485 21.3142C5.72486 21.875 14.0652 21.875 14.0652 21.875C14.0652 21.875 22.4056 21.875 24.4856 21.3142C25.6331 21.0055 26.5369 20.1339 26.8436 18.9791C27.4009 16.886 27.4009 12.5189 27.4009 12.5189C27.4009 12.5189 27.4009 8.15186 26.8436 6.05874ZM11.3374 16.4839V8.55396L18.3083 12.519L11.3374 16.4839Z" fill="white"/>
</svg>
