<svg width="27" height="27" viewBox="0 0 27 27" fill="none" xmlns="http://www.w3.org/2000/svg">
<path fill-rule="evenodd" clip-rule="evenodd" d="M22.1123 13.0076C22.1123 13.5464 21.6755 13.9832 21.1367 13.9832L7.29945 13.9832L12.7076 19.1334C13.096 19.5068 13.1081 20.1244 12.7347 20.5128C12.3613 20.9011 11.7437 20.9132 11.3553 20.5398L4.20117 13.7109C4.00988 13.5269 3.90178 13.273 3.90178 13.0076C3.90178 12.7423 4.00988 12.4883 4.20117 12.3044L11.3553 5.47547C11.7437 5.10203 12.3613 5.11414 12.7347 5.50252C13.1081 5.89089 13.096 6.50847 12.7077 6.88191L7.29945 12.0321L21.1367 12.0321C21.6755 12.0321 22.1123 12.4688 22.1123 13.0076Z" fill="white"/>
</svg>
