<svg width="27" height="27" viewBox="0 0 27 27" fill="none" xmlns="http://www.w3.org/2000/svg">
<path fill-rule="evenodd" clip-rule="evenodd" d="M3.90222 13.0075C3.90222 12.4687 4.339 12.0319 4.87779 12.0319L18.7151 12.0319L13.3069 6.88177C12.9185 6.50833 12.9064 5.89076 13.2798 5.50238C13.6533 5.114 14.2708 5.10189 14.6592 5.47533L21.8134 12.3043C22.0046 12.4882 22.1127 12.7421 22.1127 13.0075C22.1127 13.2729 22.0046 13.5268 21.8134 13.7107L14.6592 20.5397C14.2708 20.9131 13.6533 20.901 13.2798 20.5126C12.9064 20.1242 12.9185 19.5067 13.3069 19.1332L18.7151 13.9831L4.87779 13.9831C4.339 13.9831 3.90222 13.5463 3.90222 13.0075Z" fill="white"/>
</svg>
