<svg width="114" height="97" viewBox="0 0 114 97" fill="none" xmlns="http://www.w3.org/2000/svg">
<g clip-path="url(#clip0_650_2193)">
<path d="M113.39 82.7174H72.9568V65.8891H62.7064V82.6702H47.9993V65.8916H36.9063C36.9063 66.1746 36.9063 66.4411 36.9063 66.7075C36.9063 71.8066 36.8986 76.9069 36.9165 82.006C36.9177 82.5478 36.7928 82.7365 36.2128 82.7352C24.3344 82.7186 12.4548 82.7225 0.576496 82.7225C0.429897 82.7225 0.282023 82.7225 -0.000976562 82.7225C0.41205 82.0749 0.753689 81.4974 1.13357 80.9467C3.60153 77.371 6.07969 73.8029 8.54893 70.2284C10.2992 67.6954 12.0456 65.1612 13.7844 62.6206C15.9133 59.5088 18.0281 56.3882 20.1557 53.2765C22.4873 49.8665 24.8278 46.4603 27.1644 43.0528C28.7503 40.7404 30.331 38.4254 31.9206 36.1155C33.4707 33.8642 35.0387 31.6257 36.5799 29.3694C39.2302 25.489 41.8638 21.5958 44.5116 17.7142C46.1369 15.3316 47.775 12.9567 49.4118 10.5818C51.1595 8.04628 52.9161 5.51841 54.6638 2.98289C55.3178 2.03318 55.9565 1.07073 56.6818 -0.00390625C75.6147 27.6115 94.4763 55.1262 113.391 82.7148L113.39 82.7174ZM108.316 80.1653C108.364 80.1002 108.411 80.0365 108.457 79.9715C91.2282 54.8483 73.9996 29.7238 56.7162 4.52026C56.4332 4.86827 56.2318 5.08116 56.0686 5.31954C54.6192 7.43694 53.1826 9.56454 51.7306 11.6807C49.8822 14.373 48.0159 17.0513 46.1713 19.7449C44.0603 22.826 41.9709 25.9224 39.8574 29.0023C38.0281 31.6691 36.1669 34.3168 34.3401 36.9862C32.4713 39.7155 30.6356 42.4664 28.7694 45.197C27.2205 47.4648 25.6411 49.7109 24.0884 51.9775C22.2056 54.7259 20.3457 57.4883 18.4628 60.2355C16.7534 62.7289 15.0235 65.2084 13.3077 67.698C11.0105 71.0328 8.71592 74.3714 6.42643 77.7113C5.9127 78.4609 5.42063 79.227 4.84571 80.0977C5.25874 80.1232 5.52389 80.1525 5.78904 80.1525C14.9266 80.1551 24.0629 80.1551 33.2005 80.1538C33.7639 80.1538 34.0461 79.8585 34.0469 79.2678C34.0495 70.811 34.052 62.3554 34.0546 53.8986C34.0546 53.6283 34.0546 53.3581 34.0546 53.0598H76.094C76.094 53.3657 76.094 53.6372 76.094 53.9088C76.1004 62.3656 76.1055 70.8212 76.1119 79.278C76.1119 79.8687 76.3957 80.1644 76.9634 80.1653C87.1629 80.1653 97.3624 80.1653 107.562 80.1653H108.318H108.316Z" fill="#0D2691"/>
<path d="M9.79063 94.3052C7.38003 94.5066 5.90257 92.6671 5.49464 90.7868C5.15555 89.2214 5.32382 87.758 6.09634 86.3723C6.74392 85.2122 7.71275 84.5098 9.07548 84.3645C10.609 84.2013 11.9424 84.6067 12.8909 85.8254C13.8227 87.025 14.0586 88.4604 13.9426 89.9659C13.8584 91.052 13.5232 92.0552 12.8616 92.8966C12.0699 93.9024 11.0106 94.4531 9.79063 94.3052ZM9.65805 93.344C10.4624 93.3529 11.2005 93.2229 11.778 92.5702C13.1955 90.9717 13.295 89.1997 12.5531 87.2863C12.0495 85.9873 11.073 85.3601 9.72816 85.2683C8.56685 85.1906 7.33796 85.9529 6.83953 87.0479C6.27863 88.2793 6.1537 89.535 6.54761 90.8646C6.89052 92.0195 7.91799 93.4957 9.65678 93.3427L9.65805 93.344Z" fill="#0D2691"/>
<path d="M85.0449 87.2658C84.3527 87.4761 83.983 87.3538 83.6541 86.7559C83.0804 85.7119 82.0874 85.2172 80.9069 85.2835C79.6806 85.3536 78.7704 85.9923 78.2529 87.123C77.3605 89.0709 77.6588 91.4139 79.07 92.6683C80.0184 93.5109 81.1721 93.6206 82.2735 93.2407C83.2513 92.9029 83.9613 92.1507 84.0518 90.9958C84.0875 90.542 83.9562 90.31 83.4629 90.3355C82.9963 90.3584 82.5246 90.375 82.0632 90.3202C81.8834 90.2985 81.6374 90.1022 81.5826 89.9326C81.4819 89.6178 81.7037 89.4903 82.0185 89.4928C82.8892 89.5005 83.7612 89.5018 84.6318 89.4928C84.9747 89.489 85.1443 89.6267 85.1456 89.9785C85.1494 91.9557 84.5885 93.4077 82.4902 94.2414C80.5334 95.019 77.9686 93.7608 77.2394 91.7823C76.6479 90.1787 76.6798 88.6515 77.2229 87.0261C78.068 84.5008 81.0765 83.764 83.1161 84.8412C84.1168 85.3689 84.6459 86.2103 85.0449 87.2658Z" fill="#0D2691"/>
<path d="M30.6971 92.4618C30.8119 92.2133 30.9585 91.9723 31.0375 91.7123C31.4926 90.2106 31.9541 88.7102 32.3658 87.197C32.5124 86.6591 32.8744 86.872 33.1702 86.8873C33.2059 86.8885 33.2862 87.2965 33.2365 87.489C32.9573 88.5738 32.6679 89.6586 32.3365 90.7282C31.9719 91.9073 31.5589 93.0712 31.1701 94.2351C30.163 94.3421 30.2025 94.3332 29.9514 93.2994C29.7015 92.2706 29.3624 91.2623 29.0629 90.245C28.9061 89.7134 28.7531 89.1819 28.4803 88.6426C27.6313 90.4464 27.3496 92.4096 26.6587 94.2555H25.6809C25.4094 93.3083 25.1442 92.3433 24.8548 91.3859C24.4813 90.1494 24.0721 88.9231 23.719 87.6802C23.6489 87.4329 23.6859 86.9395 23.8032 86.8949C24.1805 86.7496 24.4826 86.8478 24.6139 87.3781C24.9938 88.9129 25.4476 90.4299 25.8938 91.9468C25.9422 92.1113 26.1245 92.2362 26.2456 92.3803C26.3349 92.2324 26.4623 92.096 26.507 91.9354C26.9518 90.3534 27.37 88.7637 27.8391 87.1894C27.8863 87.03 28.2215 86.858 28.414 86.8681C28.6396 86.8809 28.9966 87.039 29.0527 87.2136C29.3879 88.2449 29.6493 89.3017 29.9425 90.347C30.1362 91.0405 30.3427 91.7301 30.5429 92.4223C30.5939 92.4351 30.6436 92.4478 30.6946 92.4618H30.6971Z" fill="#0D2691"/>
<path d="M52.7853 87.962V84.4423H53.7465V94.2504H52.8312C52.8108 93.8922 52.7917 93.5646 52.7636 93.0623C52.3952 93.4524 52.1708 93.7775 51.8675 93.9942C51.0337 94.5882 48.9992 94.4455 48.1783 93.3275C47.1584 91.938 47.124 89.1603 48.2649 87.7822C49.1624 86.6974 51.4264 86.3009 52.2869 87.679C52.3761 87.8205 52.4577 87.9671 52.5418 88.1111C52.6221 88.0614 52.7037 88.0117 52.784 87.962H52.7853ZM52.9026 90.588C52.784 90.0641 52.705 89.5274 52.538 89.02C52.255 88.1583 51.5755 87.7618 50.7138 87.7121C49.861 87.6637 49.1088 88.0385 48.7748 88.7906C48.1732 90.1418 48.1438 91.539 49.0375 92.8214C49.5282 93.5251 50.6819 93.7596 51.4391 93.3619C52.5571 92.773 52.8567 91.7799 52.9026 90.5893V90.588Z" fill="#0D2691"/>
<path d="M35.08 88.3253C35.9965 86.7599 37.9316 86.4909 39.3887 87.1079C40.1752 87.4406 40.5628 88.194 40.6036 88.9487C40.6979 90.7015 40.6341 92.4632 40.6341 94.2517H39.6985C39.6628 93.9636 39.6309 93.6998 39.5888 93.367C39.4193 93.4499 39.2969 93.4818 39.2115 93.557C38.2337 94.4277 36.9488 94.6112 35.8015 94.0363C35.0647 93.6666 34.6759 92.7462 34.8225 91.7149C34.9142 91.0699 35.5236 90.4975 36.2974 90.3662C37.0469 90.2388 37.8054 90.161 38.5512 90.0169C39.0165 89.9277 39.5595 89.8691 39.6385 89.233C39.7112 88.644 39.2663 88.0041 38.6837 87.8192C37.7532 87.526 36.9348 87.679 36.2451 88.4069C35.8525 88.8212 35.5363 88.7957 35.08 88.324V88.3253ZM37.3873 93.5481C38.9323 93.5914 39.8221 92.4288 39.6334 90.9756C39.6156 90.8392 39.381 90.6084 39.2778 90.6237C38.4237 90.7512 37.5658 90.8838 36.7321 91.1043C36.226 91.2382 35.7887 91.525 35.7964 92.1892C35.8066 93.0471 36.3637 93.5455 37.3873 93.5481Z" fill="#0D2691"/>
<path d="M90.0615 90.6172C90.0857 89.2366 90.5268 88.0932 91.7098 87.3487C93.3275 86.3314 95.821 86.8273 96.5042 89.2214C96.8969 90.5956 96.8051 91.9417 95.9663 93.1604C95.0739 94.4568 93.7214 94.5218 92.4046 94.2516C91.3847 94.0425 90.6505 93.2866 90.3828 92.2132C90.2515 91.688 90.1673 91.1501 90.0615 90.6172ZM91.0214 90.4693C91.1731 91.1488 91.2267 91.753 91.4459 92.2897C91.7748 93.0941 92.4364 93.5466 93.3249 93.5568C94.2045 93.567 94.8967 93.2471 95.3085 92.393C95.7814 91.4101 95.8528 90.4451 95.5303 89.396C95.2677 88.5419 94.6188 87.8306 93.6079 87.7375C92.8048 87.6636 92.0132 87.8828 91.6257 88.6898C91.3503 89.2634 91.2088 89.9021 91.0214 90.4706V90.4693Z" fill="#0D2691"/>
<path d="M68.0256 94.3409C65.7884 94.3715 64.9381 92.9718 64.6959 91.3452C64.4983 90.0181 64.7226 88.7039 65.7501 87.7172C67.3958 86.1365 70.1774 86.7637 70.9639 88.9346C71.5376 90.5204 71.4496 92.096 70.2513 93.4447C69.6191 94.1561 68.807 94.4136 68.0269 94.3409H68.0256ZM70.3457 90.616C70.2297 90.1087 70.1646 89.5822 69.99 89.0952C69.461 87.6203 67.3958 87.2544 66.3518 88.4311C65.4046 89.4968 65.3804 91.6792 66.3034 92.7755C67.1281 93.7545 68.4246 93.8794 69.3807 93.033C70.092 92.402 70.2896 91.5517 70.3457 90.616Z" fill="#0D2691"/>
<path d="M17.0392 94.2516H16.0806C16.0653 94.0171 16.0411 93.8106 16.0411 93.6041C16.0385 91.5861 16.0347 89.5681 16.0449 87.5502C16.0462 87.2633 15.911 86.8669 16.4337 86.8427C16.9385 86.8197 17.0392 87.1206 17.0277 87.5374C17.0239 87.656 17.0711 87.7771 17.0966 87.902C17.5058 87.6024 17.8602 87.2544 18.2821 87.0492C19.8284 86.2971 21.6666 87.2914 21.6858 88.9868C21.7049 90.7218 21.6896 92.4568 21.6896 94.2363H20.8074C20.8074 92.806 20.8215 91.3885 20.7985 89.971C20.7921 89.5783 20.7246 89.1691 20.5933 88.7994C20.3128 88.0104 19.5314 87.5757 18.7423 87.707C17.7238 87.8752 17.066 88.5266 17.0519 89.4419C17.0303 90.8008 17.043 92.161 17.0405 93.5199C17.0405 93.7494 17.0405 93.9788 17.0405 94.2491L17.0392 94.2516Z" fill="#0D2691"/>
<path d="M109.76 86.9944C109.525 87.7287 109.324 88.4273 109.076 89.1105C108.682 90.2043 108.258 91.2891 107.846 92.3765C107.423 93.4945 107.042 94.6316 106.564 95.7266C106.067 96.8662 105.326 97.1645 103.887 96.9236C104.005 96.5119 104.075 96.1842 104.676 96.1779C105.594 96.1689 106.276 94.7935 105.915 93.8093C105.154 91.7378 104.386 89.6701 103.629 87.5974C103.56 87.4074 103.545 87.1984 103.503 86.9893C104.129 86.8338 104.469 86.9281 104.671 87.5986C105.121 89.1003 105.68 90.5701 106.209 92.0476C106.299 92.2987 106.457 92.5256 106.678 92.9438C106.932 92.2401 107.132 91.6894 107.329 91.1361C107.757 89.9315 108.229 88.7396 108.589 87.5145C108.767 86.9141 109.088 86.8593 109.761 86.9919L109.76 86.9944Z" fill="#0D2691"/>
<path d="M63.1808 94.2236C62.0577 94.4721 61.1118 94.1713 60.7115 93.2394C60.6325 93.0559 60.5841 92.8443 60.5828 92.6441C60.5713 91.2215 60.5662 89.7988 60.579 88.3762C60.5815 88.0052 60.5191 87.7401 60.0767 87.7566C59.7376 87.7694 59.5056 87.6955 59.5158 87.2697C59.5273 86.8108 59.8269 86.8465 60.129 86.8388C60.2526 86.8363 60.375 86.8069 60.5611 86.7814V85.2759H61.5822C61.5822 85.6125 61.6052 85.9452 61.5771 86.2741C61.5389 86.7292 61.7365 86.8949 62.1699 86.8439C62.2744 86.8312 62.3815 86.8426 62.4886 86.8439C63.0044 86.8473 63.2228 87.132 63.1438 87.698C62.9743 87.7158 62.7907 87.7452 62.6071 87.7503C61.9247 87.7681 61.5835 88.1267 61.5835 88.8262C61.5835 89.9939 61.5758 91.1616 61.5886 92.3305C61.5962 93.0138 61.827 93.3006 62.4784 93.3147C63.1183 93.3274 63.3146 93.6015 63.1808 94.2248V94.2236Z" fill="#0D2691"/>
<path d="M43.8526 94.2593H42.8901C42.8761 94.0744 42.8519 93.8909 42.8506 93.7073C42.8481 91.6281 42.8468 89.549 42.8506 87.4698C42.8506 87.1919 42.7499 86.8465 43.2381 86.8388C43.6754 86.8312 43.8551 87.0173 43.8386 87.4507C43.8335 87.596 43.9176 87.7452 43.9291 87.7821C44.49 87.4443 44.9731 86.9994 45.5353 86.8503C46.3333 86.6387 46.4875 86.8936 46.2861 87.6572C45.7061 87.8166 45.1184 87.8752 44.6417 88.1378C44.119 88.4259 43.8284 88.9409 43.8424 89.6127C43.8743 91.1373 43.8526 92.662 43.8526 94.258V94.2593Z" fill="#0D2691"/>
<path d="M87.2588 84.5086H88.155V94.244H87.2588V84.5086Z" fill="#0D2691"/>
<path d="M102.055 87.8614C101.185 87.7645 100.377 87.8371 99.9335 88.6759C99.7359 89.0507 99.5906 89.4969 99.574 89.9163C99.5256 91.1031 99.5587 92.2925 99.5549 93.4806C99.5549 93.7291 99.5281 93.979 99.5116 94.2556H98.7123C98.697 94.0249 98.6702 93.7993 98.6702 93.5749C98.6664 91.6219 98.66 89.6703 98.6779 87.7173C98.6804 87.4279 98.4803 86.9792 99.0424 86.9321C99.6556 86.8811 99.4619 87.3731 99.5383 87.6829C99.5485 87.7237 99.5689 87.7607 99.6263 87.9009C99.8226 87.7441 99.9871 87.5796 100.18 87.4662C100.535 87.2571 100.89 86.9779 101.278 86.9066C102.132 86.7498 102.22 86.8849 102.055 87.8601V87.8614Z" fill="#0D2691"/>
<path d="M76.6576 46.7192H37.2403C43.8258 37.6518 50.3526 28.6633 56.9432 19.5895C63.521 28.6417 70.0568 37.6365 76.6576 46.7192Z" fill="#0D2691"/>
<path d="M32.8518 53.2192V65.8012H23.6836C26.7456 61.5996 29.7515 57.4744 32.8518 53.2192Z" fill="#0D2691"/>
<path d="M77.3135 53.2561C80.3946 57.4807 83.3878 61.5842 86.4664 65.8062H77.3135V53.2561Z" fill="#0D2691"/>
</g>
<defs>
<clipPath id="clip0_650_2193">
<rect width="113.39" height="97" fill="white"/>
</clipPath>
</defs>
</svg>
